<svg width="25" height="23" viewBox="0 0 25 23" fill="none" xmlns="http://www.w3.org/2000/svg">
<path d="M2.16666 11.8333L1.3858 11.2086L0.886039 11.8333L1.3858 12.458L2.16666 11.8333ZM11.9167 12.8333C12.4689 12.8333 12.9167 12.3856 12.9167 11.8333C12.9167 11.281 12.4689 10.8333 11.9167 10.8333V12.8333ZM6.5 6.41663L5.71913 5.79193L1.3858 11.2086L2.16666 11.8333L2.94753 12.458L7.28087 7.04132L6.5 6.41663ZM2.16666 11.8333L1.3858 12.458L5.71913 17.8747L6.5 17.25L7.28087 16.6253L2.94753 11.2086L2.16666 11.8333ZM2.16666 11.8333V12.8333H11.9167V11.8333V10.8333H2.16666V11.8333Z" fill="#FF0000"/>
<path d="M10.8333 7.64293V6.55518C10.8333 4.93683 10.8333 4.12766 11.3073 3.56817C11.7813 3.00868 12.5794 2.87565 14.1757 2.6096L16.8469 2.1644C20.09 1.62388 21.7116 1.35363 22.7725 2.25232C23.8333 3.15102 23.8333 4.79493 23.8333 8.08276V15.5839C23.8333 18.8717 23.8333 20.5156 22.7725 21.4143C21.7116 22.313 20.09 22.0428 16.8469 21.5023L14.1757 21.0571C12.5794 20.791 11.7813 20.658 11.3073 20.0985C10.8333 19.539 10.8333 18.7298 10.8333 17.1115V16.2381" stroke="#FF0000" stroke-width="2"/>
</svg>
