<svg width="26" height="28" viewBox="0 0 26 28" fill="none" xmlns="http://www.w3.org/2000/svg">
<path d="M20.5625 7.875L24 4.4375M24 4.4375L20.5625 1M24 4.4375L16.7812 4.4375C14.6929 4.4375 13 6.13042 13 8.21875V8.21875C13 10.3071 14.6929 12 16.7812 12L20.5625 12" stroke="white" stroke-width="2" stroke-linecap="round"/>
<path d="M6.5 16.1667C5.94771 16.1667 5.5 16.6144 5.5 17.1667C5.5 17.7189 5.94771 18.1667 6.5 18.1667L6.5 16.1667ZM13.5 18.1667C14.0523 18.1667 14.5 17.7189 14.5 17.1667C14.5 16.6144 14.0523 16.1667 13.5 16.1667L13.5 18.1667ZM6.5 11.5C5.94771 11.5 5.5 11.9477 5.5 12.5C5.5 13.0523 5.94771 13.5 6.5 13.5L6.5 11.5ZM11.1667 13.5C11.7189 13.5 12.1667 13.0523 12.1667 12.5C12.1667 11.9477 11.7189 11.5 11.1667 11.5L11.1667 13.5ZM6.5 20.8333C5.94771 20.8333 5.5 21.2811 5.5 21.8333C5.5 22.3856 5.94771 22.8333 6.5 22.8333V20.8333ZM11.1667 22.8333C11.7189 22.8333 12.1667 22.3856 12.1667 21.8333C12.1667 21.2811 11.7189 20.8333 11.1667 20.8333V22.8333ZM2.71201 25.6213L3.41912 24.9142L3.41911 24.9142L2.71201 25.6213ZM17.288 25.6213L16.5809 24.9142L16.5809 24.9142L17.288 25.6213ZM6.5 17.1667L6.5 18.1667L13.5 18.1667L13.5 17.1667L13.5 16.1667L6.5 16.1667L6.5 17.1667ZM6.5 12.5L6.5 13.5L11.1667 13.5L11.1667 12.5L11.1667 11.5L6.5 11.5L6.5 12.5ZM6.5 21.8333V22.8333H11.1667V21.8333V20.8333H6.5V21.8333ZM12.1667 26.5V25.5H7.83333V26.5V27.5H12.1667V26.5ZM1.83333 20.5H2.83333V11.5H1.83333H0.833328V20.5H1.83333ZM18.1667 17.1667H17.1667V20.5H18.1667H19.1667V17.1667H18.1667ZM7.83333 5.5V6.5H8.83333V5.5V4.5H7.83333V5.5ZM7.83333 26.5V25.5C6.39084 25.5 5.40958 25.4979 4.67476 25.3991C3.96871 25.3042 3.64169 25.1368 3.41912 24.9142L2.71201 25.6213L2.0049 26.3284C2.66101 26.9845 3.48043 27.2565 4.40826 27.3812C5.30733 27.5021 6.44738 27.5 7.83333 27.5V26.5ZM1.83333 20.5H0.833328C0.833328 21.8859 0.831205 23.026 0.95208 23.9251C1.07682 24.8529 1.34879 25.6723 2.0049 26.3284L2.71201 25.6213L3.41911 24.9142C3.19654 24.6916 3.02917 24.3646 2.93425 23.6586C2.83545 22.9237 2.83333 21.9425 2.83333 20.5H1.83333ZM12.1667 26.5V27.5C13.5526 27.5 14.6927 27.5021 15.5917 27.3812C16.5196 27.2565 17.339 26.9845 17.9951 26.3284L17.288 25.6213L16.5809 24.9142C16.3583 25.1368 16.0313 25.3042 15.3252 25.3991C14.5904 25.4979 13.6091 25.5 12.1667 25.5V26.5ZM18.1667 20.5H17.1667C17.1667 21.9425 17.1645 22.9237 17.0657 23.6586C16.9708 24.3646 16.8034 24.6916 16.5809 24.9142L17.288 25.6213L17.9951 26.3284C18.6512 25.6723 18.9232 24.8529 19.0479 23.9251C19.1688 23.026 19.1667 21.8859 19.1667 20.5H18.1667ZM1.83333 11.5H2.83333C2.83333 10.0575 2.83545 9.07625 2.93425 8.34143C3.02917 7.63538 3.19654 7.30836 3.41911 7.08579L2.71201 6.37868L2.0049 5.67157C1.34879 6.32768 1.07682 7.14711 0.95208 8.07494C0.831205 8.974 0.833328 10.1141 0.833328 11.5H1.83333ZM7.83333 5.5V4.5C6.44738 4.5 5.30733 4.49788 4.40827 4.61875C3.48044 4.7435 2.66101 5.01546 2.0049 5.67157L2.71201 6.37868L3.41911 7.08579C3.64169 6.86322 3.96871 6.69584 4.67476 6.60092C5.40958 6.50212 6.39085 6.5 7.83333 6.5V5.5Z" fill="white"/>
</svg>
