<svg width="28" height="28" viewBox="0 0 28 28" fill="none" xmlns="http://www.w3.org/2000/svg">
<path d="M16.3333 17.5L11.6667 22.1667L16.3333 26.8333" stroke="white" stroke-width="2"/>
<path d="M21.0725 9.91668C21.7893 11.1582 22.1667 12.5665 22.1667 14C22.1667 15.4336 21.7893 16.8419 21.0725 18.0833C20.3558 19.3248 19.3248 20.3558 18.0833 21.0726C16.8418 21.7893 15.4335 22.1667 14 22.1667" stroke="white" stroke-width="2" stroke-linecap="round"/>
<path d="M11.6667 10.5L16.3333 5.83333L11.6667 1.16667" stroke="white" stroke-width="2"/>
<path d="M6.92745 18.0833C6.21068 16.8418 5.83333 15.4335 5.83333 14C5.83333 12.5664 6.21068 11.1581 6.92745 9.91666C7.64423 8.67517 8.67517 7.64422 9.91666 6.92745C11.1582 6.21068 12.5664 5.83332 14 5.83332" stroke="white" stroke-width="2" stroke-linecap="round"/>
</svg>
