<svg width="22" height="22" viewBox="0 0 22 22" fill="none" xmlns="http://www.w3.org/2000/svg">
<path d="M15.0833 9.25L11.5833 12.75L9.25 10.4167L5.75 13.9167" stroke="white" stroke-width="2" stroke-linecap="round" stroke-linejoin="round"/>
<path d="M13.3333 2.83334H4.86666C3.74656 2.83334 3.18651 2.83334 2.75868 3.05133C2.38236 3.24308 2.0764 3.54904 1.88465 3.92536C1.66666 4.35319 1.66666 4.91324 1.66666 6.03334V17.1333C1.66666 18.2534 1.66666 18.8135 1.88465 19.2413C2.0764 19.6176 2.38236 19.9236 2.75868 20.1154C3.18651 20.3333 3.74656 20.3333 4.86666 20.3333H15.9667C17.0868 20.3333 17.6468 20.3333 18.0746 20.1154C18.451 19.9236 18.7569 19.6176 18.9487 19.2413C19.1667 18.8135 19.1667 18.2534 19.1667 17.1333V8.66668" stroke="white" stroke-width="2" stroke-linecap="round"/>
<circle cx="19.1667" cy="2.83333" r="2.33333" fill="white"/>
</svg>
